PathFileType	4	(x/y/z)	S05_M20_T02
DataRate	CameraRate	NumFrames	NumMarkers	Units	OrigDataRate	OrigDataStartFrame	OrigNumFrames
240	240	9	50	mm	240	342	546
Frame#	Time	Sternum			R.Acromium			L.Acromium			Top.Head			R.ASIS			L.ASIS			R.PSIS			L.PSIS			R.Great.Tro			L.Great.Tro			R.Iliac.Crest			L.Iliac.Crest			V.Sacral			R.Thigh.Upper.Post			R.Thigh.Lower.Ant			R.Thigh.Lower.Post			R.Thigh.Upper.Ant			R.Knee.Lat			R.Knee.Med			R.Shank.Upper.Post			R.Shank.Lower.Ant			R.Shank.Lower.Post			R.Shank.Upper.Ant			R.Ankle.Lat			R.Ankle.Med			R.Heel.Upper			R.Heel.Med			R.Heel.Lat			R.Toe.Lat			R.Toe.Med			R.Toe.Tip			L.Thigh.Upper.Post			L.Thigh.Lower.Ant			L.Thigh.Lower.Post			L.Thigh.Upper.Ant			L.Knee.Lat			L.Shank.Upper.Post			L.Shank.Lower.Ant			L.Shank.Lower.Post			L.Shank.Upper.Ant			L.Ankle.Lat			L.Ankle.Med			L.Heel.Upper			L.Heel.Med			L.Heel.Lat			L.Toe.Lat			L.Toe.Med			L.Toe.Tip			Cervical.Spine			Back			
		X1	Y1	Z1	X2	Y2	Z2	X3	Y3	Z3	X4	Y4	Z4	X5	Y5	Z5	X6	Y6	Z6	X7	Y7	Z7	X8	Y8	Z8	X9	Y9	Z9	X10	Y10	Z10	X11	Y11	Z11	X12	Y12	Z12	X13	Y13	Z13	X14	Y14	Z14	X15	Y15	Z15	X16	Y16	Z16	X17	Y17	Z17	X18	Y18	Z18	X19	Y19	Z19	X20	Y20	Z20	X21	Y21	Z21	X22	Y22	Z22	X23	Y23	Z23	X24	Y24	Z24	X25	Y25	Z25	X26	Y26	Z26	X27	Y27	Z27	X28	Y28	Z28	X29	Y29	Z29	X30	Y30	Z30	X31	Y31	Z31	X32	Y32	Z32	X33	Y33	Z33	X34	Y34	Z34	X35	Y35	Z35	X36	Y36	Z36	X37	Y37	Z37	X38	Y38	Z38	X39	Y39	Z39	X40	Y40	Z40	X41	Y41	Z41	X42	Y42	Z42	X43	Y43	Z43	X44	Y44	Z44	X45	Y45	Z45	X46	Y46	Z46	X47	Y47	Z47	X48	Y48	Z48	X49	Y49	Z49	X50	Y50	Z50	

342	1.4208	892.64	1197.5	321.82	808.25	1465	467.41	818.09	1476.1	134.65	801.33	1760.9	266.39	799.73	956.18	460	856.34	951.92	214.03	626.88	986.71	326.66	649.03	976.44	237.94	690.22	895.09	500.3	796.96	876.45	116.97	711.55	1047.8	475.44	776.05	1026.3	142.51	618.16	950.61	293.66	672.17	665.32	490.46	704.48	578.54	446.28	634.4	587.08	464.01	738.76	657.05	474.84	588.87	501.4	441.05	606.63	485.82	308.71	416.83	313.29	414.96	446.13	227.68	411.83	386.82	245.48	392.92	478.25	296.35	430.95	384.84	141.95	387.5	416.13	164.66	300.18	304.01	105.16	322.7	310.08	70.465	295.71	305.22	76.514	360.74	461.57	37.037	424.81	504.88	37.643	306.67	566	45.944	355.17	897.71	657.4	122.87	995.84	627.65	164.91	947.16	578.12	142.9	953.59	707.08	148.33	1000.5	511.25	152.54	1047.8	306.63	146.15	1135.7	293.1	148.68	1085.1	244.77	164.29	1096.1	351.18	137.87	1189.1	147.29	167.87	1213.2	179.46	252.64	1179.1	66.639	222.43	1205	57.178	255.77	1200.2	45.916	196.35	1340.5	155.89	134.9	1350.8	186.81	251.11	1389.4	235.51	195.1	767.1	1511.9	304.42	634.89	1245.5	297.44
343	1.425	898.83	1196.5	321.41	814.43	1464.1	466.62	824.19	1474.8	133.82	807.05	1759.8	265.07	805.54	955.24	459.82	862.95	950.97	214	633.15	985.72	325.89	655.54	975.45	237.23	695.75	894.37	499.77	803.98	875.68	116.73	717.37	1046.8	474.87	782.81	1025.3	142.17	624.55	949.61	292.89	676.85	664.83	490.42	708.95	577.82	446.53	638.86	586.66	464.08	743.44	656.25	475.01	592.94	501.15	441.18	611.04	485.2	308.97	419.46	314.37	415.05	448.1	228.5	412.04	388.92	246.8	393.04	480.74	296.91	431.15	386.02	143.24	387.72	417.63	165.63	300.49	304.96	107.27	322.98	310.7	72.581	295.87	305.91	78.472	360.93	461.75	37.085	424.89	505.08	37.733	306.77	566.16	45.719	355.24	904.92	656.87	122.71	1002.9	627.08	165.12	954.31	577.56	142.82	960.7	706.51	148.49	1007.4	510.47	152.44	1052.7	305.37	145.72	1140.5	290.86	148.69	1089.3	243.08	163.78	1101.6	349.4	137.83	1192.1	144.55	167.64	1216.2	176.23	252.6	1181.1	64.036	221.92	1207	54.209	255.33	1202.1	43.226	195.85	1343.5	151.98	135.14	1353.8	182.37	251.46	1392.9	230.96	195.73	773.23	1510.9	303.57	641.05	1244.4	296.81
344	1.4292	905.08	1195.4	320.98	820.64	1463.3	465.82	830.32	1473.6	132.98	812.8	1758.7	263.73	811.44	954.34	459.62	869.62	950.08	213.95	639.49	984.76	325.1	662.12	974.5	236.5	701.37	893.68	499.22	811.06	874.94	116.48	723.25	1046	474.29	789.63	1024.3	141.82	631.03	948.64	292.1	681.61	664.38	490.37	713.5	577.13	446.79	643.4	586.29	464.14	748.21	655.5	475.19	597.11	500.93	441.31	615.57	484.59	309.24	422.18	315.52	415.15	450.15	229.39	412.25	391.09	248.19	393.16	483.3	297.54	431.36	387.28	144.61	387.96	419.22	166.66	300.83	306	109.49	323.27	311.39	74.824	296.05	306.67	80.543	361.12	461.95	37.144	424.98	505.3	37.831	306.87	566.33	45.502	355.32	912.09	656.3	122.53	1009.9	626.42	165.27	961.37	576.94	142.72	967.79	705.89	148.6	1014.2	509.64	152.34	1057.5	304.09	145.31	1145.1	288.58	148.71	1093.3	241.37	163.28	1106.9	347.59	137.79	1195	141.81	167.43	1219.1	172.98	252.57	1182.9	61.537	221.44	1208.7	51.316	254.91	1203.8	40.615	195.37	1346.4	147.95	135.39	1356.6	177.82	251.82	1396.3	226.25	196.37	779.39	1509.9	302.71	647.25	1243.4	296.18
345	1.4333	911.39	1194.5	320.55	826.89	1462.5	465	836.48	1472.4	132.12	818.56	1757.6	262.37	817.42	953.49	459.4	876.35	949.23	213.89	645.91	983.85	324.3	668.77	973.59	235.75	707.07	893.03	498.65	818.21	874.22	116.22	729.21	1045.1	473.69	796.52	1023.4	141.46	637.59	947.71	291.3	686.45	663.97	490.32	718.15	576.48	447.07	648.04	585.96	464.19	753.06	654.79	475.38	601.38	500.75	441.46	620.21	484	309.53	424.99	316.74	415.24	452.28	230.35	412.48	393.36	249.66	393.28	485.94	298.23	431.59	388.62	146.06	388.21	420.89	167.75	301.2	307.13	111.83	323.57	312.16	77.196	296.24	307.5	82.731	361.32	462.16	37.217	425.07	505.53	37.938	306.97	566.49	45.293	355.39	919.19	655.7	122.35	1016.9	625.68	165.37	968.33	576.27	142.6	974.87	705.2	148.65	1020.9	508.77	152.23	1062.2	302.8	144.95	1149.6	286.31	148.74	1097.2	239.66	162.81	1112.1	345.77	137.78	1197.8	139.07	167.23	1221.9	169.74	252.54	1184.7	59.179	220.99	1210.3	48.537	254.51	1205.4	38.119	194.91	1349.2	143.83	135.65	1359.5	173.18	252.17	1399.7	221.41	196.99	785.57	1509	301.83	653.51	1242.5	295.55
346	1.4375	917.75	1193.6	320.11	833.17	1461.8	464.17	842.65	1471.2	131.26	824.35	1756.6	260.99	823.48	952.67	459.17	883.14	948.44	213.8	652.41	982.97	323.49	675.48	972.75	234.99	712.85	892.41	498.05	825.4	873.54	115.94	735.24	1044.3	473.08	803.47	1022.5	141.07	644.22	946.83	290.48	691.38	663.61	490.26	722.9	575.87	447.36	652.78	585.65	464.25	758.01	654.13	475.56	605.75	500.6	441.61	624.97	483.41	309.84	427.91	318.02	415.34	454.49	231.38	412.73	395.72	251.21	393.4	488.67	298.99	431.84	390.04	147.59	388.48	422.65	168.9	301.59	308.36	114.3	323.89	313.01	79.702	296.43	308.4	85.04	361.52	462.38	37.306	425.16	505.76	38.052	307.08	566.66	45.093	355.46	926.21	655.07	122.16	1023.8	624.86	165.39	975.18	575.54	142.46	981.92	704.45	148.64	1027.6	507.86	152.12	1066.8	301.49	144.63	1154	284.04	148.79	1101	237.96	162.39	1117.2	343.95	137.78	1200.5	136.38	167.05	1224.6	166.54	252.53	1186.3	57.002	220.58	1211.8	45.91	254.14	1206.7	35.776	194.48	1351.9	139.64	135.9	1362.2	168.48	252.52	1403.1	216.44	197.6	791.76	1508.1	300.93	659.81	1241.6	294.91
347	1.4417	924.16	1192.8	319.66	839.49	1461.1	463.33	848.85	1470.2	130.38	830.16	1755.6	259.59	829.62	951.9	458.92	889.99	947.7	213.69	658.98	982.14	322.66	682.24	971.96	234.2	718.73	891.82	497.43	832.63	872.88	115.65	741.36	1043.6	472.46	810.48	1021.7	140.67	650.93	945.98	289.65	696.42	663.28	490.2	727.76	575.3	447.66	657.63	585.38	464.3	763.05	653.52	475.75	610.25	500.48	441.78	629.86	482.83	310.18	430.94	319.38	415.44	456.8	232.48	412.99	398.19	252.83	393.52	491.51	299.81	432.09	391.55	149.2	388.76	424.51	170.12	302.01	309.71	116.89	324.22	313.96	82.344	296.63	309.39	87.474	361.72	462.63	37.415	425.25	506.02	38.174	307.18	566.83	44.9	355.52	933.16	654.41	121.95	1030.6	623.96	165.34	981.91	574.76	142.3	988.94	703.65	148.55	1034.1	506.92	152.01	1071.3	300.18	144.36	1158.3	281.8	148.86	1104.8	236.28	162	1122.2	342.14	137.8	1203.2	133.76	166.89	1227.4	163.42	252.52	1187.8	55.041	220.22	1213.1	43.47	253.81	1208	33.619	194.1	1354.5	135.38	136.15	1365	163.74	252.84	1406.5	211.37	198.16	797.98	1507.3	300.03	666.17	1240.7	294.27
348	1.4458	930.64	1192.1	319.2	845.84	1460.5	462.48	855.08	1469.1	129.48	835.98	1754.8	258.17	835.85	951.18	458.64	896.88	947.02	213.55	665.61	981.35	321.84	689.05	971.23	233.41	724.7	891.25	496.79	839.9	872.25	115.34	747.54	1042.9	471.83	817.53	1020.9	140.25	657.7	945.19	288.82	701.56	662.98	490.14	732.75	574.75	447.98	662.6	585.14	464.36	768.21	652.94	475.94	614.88	500.38	441.96	634.9	482.25	310.53	434.09	320.8	415.55	459.22	233.64	413.26	400.78	254.52	393.63	494.45	300.69	432.37	393.17	150.9	389.04	426.48	171.39	302.45	311.17	119.61	324.56	315.01	85.127	296.82	310.48	90.038	361.91	462.89	37.545	425.34	506.28	38.304	307.28	567.01	44.714	355.58	940.01	653.73	121.73	1037.3	623	165.22	988.52	573.94	142.13	995.91	702.8	148.38	1040.5	505.96	151.87	1075.8	298.89	144.15	1162.6	279.62	148.94	1108.6	234.64	161.68	1127.2	340.36	137.84	1205.9	131.22	166.75	1230.1	160.4	252.52	1189.4	53.327	219.92	1214.3	41.247	253.53	1209.2	31.677	193.76	1357.2	131.09	136.39	1367.8	158.97	253.13	1410	206.21	198.69	804.21	1506.5	299.11	672.59	1239.8	293.62
349	1.45	937.17	1191.4	318.73	852.22	1460	461.62	861.32	1468.2	128.58	841.82	1754	256.74	842.16	950.5	458.35	903.8	946.39	213.38	672.31	980.6	321.02	695.9	970.57	232.6	730.75	890.72	496.13	847.18	871.67	115.01	753.81	1042.2	471.2	824.63	1020.3	139.8	664.53	944.45	287.98	706.81	662.72	490.08	737.87	574.25	448.32	667.7	584.91	464.42	773.49	652.41	476.13	619.66	500.3	442.16	640.1	481.66	310.92	437.38	322.28	415.66	461.74	234.88	413.55	403.5	256.29	393.74	497.52	301.63	432.66	394.89	152.67	389.34	428.56	172.73	302.91	312.78	122.47	324.9	316.18	88.054	297.02	311.67	92.737	362.09	463.17	37.702	425.44	506.56	38.443	307.39	567.18	44.535	355.63	946.77	653.05	121.5	1043.9	621.99	165.02	995	573.09	141.93	1002.8	701.92	148.13	1046.8	505	151.72	1080.3	297.63	143.99	1166.8	277.51	149.03	1112.3	233.06	161.42	1132.1	338.63	137.89	1208.6	128.8	166.64	1232.9	157.5	252.54	1190.9	51.885	219.66	1215.5	39.266	253.28	1210.2	29.976	193.48	1359.8	126.77	136.61	1370.6	154.19	253.39	1413.5	200.96	199.15	810.46	1505.8	298.18	679.05	1239	292.98
350	1.4542	943.76	1190.8	318.25	858.63	1459.5	460.75	867.58	1467.3	127.66	847.69	1753.2	255.28	848.56	949.86	458.04	910.75	945.82	213.18	679.07	979.91	320.2	702.78	969.98	231.79	736.9	890.2	495.46	854.48	871.15	114.66	760.16	1041.6	470.57	831.75	1019.7	139.34	671.4	943.76	287.14	712.19	662.49	490.01	743.13	573.76	448.66	672.93	584.7	464.49	778.89	651.92	476.32	624.59	500.23	442.37	645.47	481.06	311.34	440.82	323.82	415.76	464.39	236.18	413.85	406.37	258.13	393.85	500.71	302.62	432.96	396.74	154.53	389.64	430.78	174.12	303.39	314.53	125.45	325.25	317.48	91.128	297.21	312.97	95.576	362.26	463.47	37.889	425.52	506.87	38.59	307.49	567.36	44.362	355.67	953.43	652.36	121.25	1050.5	620.94	164.75	1001.3	572.22	141.7	1009.7	701.02	147.8	1053	504.05	151.55	1084.8	296.42	143.9	1171.1	275.49	149.14	1116.1	231.55	161.22	1136.9	336.97	137.95	1211.3	126.51	166.55	1235.8	154.74	252.57	1192.3	50.732	219.47	1216.6	37.543	253.09	1211.3	28.534	193.24	1362.4	122.43	136.81	1373.5	149.41	253.6	1417.1	195.64	199.55	816.73	1505.1	297.24	685.57	1238.3	292.33
